<svg xmlns="http://www.w3.org/2000/svg" viewBox="0 0 550.09 618"><defs><style>.cls-1{isolation:isolate;}.cls-2{fill:#fff;}.cls-3{fill:none;}.cls-4{fill:#eafb6e;}.cls-5{fill:#b2cf1d;}.cls-6,.cls-7{fill:#dbe7e8;}.cls-7{mix-blend-mode:multiply;}</style></defs><g class="cls-1"><g id="Layer_2" data-name="Layer 2"><g id="Layer_1-2" data-name="Layer 1"><path d="M492.43,584.19a1.53,1.53,0,0,0-1.51-1.1h-4.19a1.53,1.53,0,0,0-1.51,1.1l-6.81,18.56-7-18.56a1.54,1.54,0,0,0-1.52-1.1h-4.13a1.53,1.53,0,0,0-1.51,1.1l-6.87,18.56-6.86-18.56a1.54,1.54,0,0,0-1.52-1.1h-4.13a1.54,1.54,0,0,0-1.51,1.1l-6.92,18.56-6.87-18.56a1.53,1.53,0,0,0-1.51-1.1h-4.19a1.53,1.53,0,0,0-1.51,1.1l-9.72,25.43a1,1,0,0,0,.93,1.4h3.72a1.52,1.52,0,0,0,1.52-1l7.15-19.2,7.16,19.2a1.47,1.47,0,0,0,1.51,1h3.44a1.48,1.48,0,0,0,1.51-1l7.33-19.2L454,610a1.55,1.55,0,0,0,1.51,1h3.61a1.55,1.55,0,0,0,1.51-1l7.16-19.2,7.27,19.2a1.48,1.48,0,0,0,1.51,1H480a1.47,1.47,0,0,0,1.51-1l7.22-19.08L495.86,610a1.52,1.52,0,0,0,1.52,1h3.84a1,1,0,0,0,.93-1.4Z"/><path d="M380.32,604.85c-.7-.93-1.4-.64-2-.29a10.41,10.41,0,0,1-5.3,1.69c-5.06,0-8.43-4-8.43-9.2s3.37-9.25,8.43-9.25a10.32,10.32,0,0,1,5.42,1.69,1.33,1.33,0,0,0,2-.23l1.63-2.27a1.24,1.24,0,0,0-.29-1.92,14.76,14.76,0,0,0-9-2.8c-8.67,0-14.43,6.4-14.43,14.78s5.76,14.72,14.43,14.72a14.82,14.82,0,0,0,9-2.79,1.22,1.22,0,0,0,.29-1.92Z"/><path d="M341.1,583.09h-3.43a1.35,1.35,0,0,0-1.34,1.34v2.32a10.92,10.92,0,0,0-9.14-4.48c-7.56,0-14.08,6-14.08,14.72s6.52,14.78,14,14.78a11,11,0,0,0,9.2-4.48v2.45a1.34,1.34,0,0,0,1.34,1.28h3.43a1.29,1.29,0,0,0,1.28-1.28V584.43A1.3,1.3,0,0,0,341.1,583.09Zm-13.27,23.1c-5,0-8.55-4.08-8.55-9.14s3.55-9.07,8.55-9.07,8.56,3.95,8.56,9.07S332.78,606.19,327.83,606.19Z"/><path d="M257.19,569.07a21.35,21.35,0,0,0,0,42.7A22.06,22.06,0,0,0,263,611l2.29,6a1.51,1.51,0,0,0,1.57,1h3.67c.87,0,1.51-.58,1.1-1.69l-3-7.79a21.45,21.45,0,0,0-11.45-39.45Zm9.25,33.72-2.67-7a1.69,1.69,0,0,0-1.75-1.1h-3.49a1.14,1.14,0,0,0-1.16,1.68l3.53,9.16a15.39,15.39,0,0,1-3.71.44c-8.61,0-14.72-6.75-14.72-15.59s6.11-15.59,14.72-15.59,14.73,6.75,14.73,15.59A15.78,15.78,0,0,1,266.44,602.79Z"/><path d="M307.82,583.09h-3.44a1.33,1.33,0,0,0-1.28,1.28v14.49c0,4.48-2.79,7.68-7.5,7.68s-7.28-3.09-7.28-7.74V584.37a1.29,1.29,0,0,0-1.28-1.28h-3.43a1.34,1.34,0,0,0-1.34,1.28v15.42c0,7.15,4.48,12,11.76,12,4.36,0,7.33-1.74,9.07-4.3v2.33a1.28,1.28,0,0,0,1.28,1.22h3.44a1.34,1.34,0,0,0,1.33-1.28V584.43A1.35,1.35,0,0,0,307.82,583.09Z"/><path d="M353.14,569.82h-3.43a1.39,1.39,0,0,0-1.34,1.34v38.52a1.39,1.39,0,0,0,1.34,1.34h3.43a1.3,1.3,0,0,0,1.28-1.34V571.16A1.3,1.3,0,0,0,353.14,569.82Z"/><path d="M398.24,582.33a14.72,14.72,0,1,0,14.66,14.72A14.55,14.55,0,0,0,398.24,582.33Zm0,23.8c-5,0-8.56-4-8.56-9.08s3.55-9.07,8.56-9.07,8.55,3.95,8.55,9.07S403.24,606.13,398.24,606.13Z"/><path d="M47.84,598.06V583h5.54a4.79,4.79,0,0,1,0,9.58H50.86v5.46ZM55,587.82a1.94,1.94,0,0,0-2-2.14H50.86V590H53A1.94,1.94,0,0,0,55,587.82Z"/><path d="M67.79,598.06l-2.32-5.44H63.82v5.44h-3V583h5.61A4.47,4.47,0,0,1,71,587.78c0,2.59-1.39,3.9-2.66,4.3l2.78,6ZM68,587.82a1.94,1.94,0,0,0-2-2.14H63.82V590H66A1.93,1.93,0,0,0,68,587.82Z"/><path d="M74.17,598.06V583H82.8v2.66H77.19v3.4h5.46v2.64H77.19v3.68H82.8v2.66Z"/><path d="M85,596.37,86.46,594a4.88,4.88,0,0,0,3.65,1.62c1.37,0,2.07-.74,2.07-1.66,0-2.66-6.74-1.72-6.74-6.81,0-2.37,1.85-4.4,5-4.4A6.63,6.63,0,0,1,95,584.44l-1.42,2.3a4.59,4.59,0,0,0-3.23-1.28,1.59,1.59,0,0,0-1.8,1.53c0,2.37,6.72,1.69,6.72,6.74,0,2.61-1.78,4.6-5.12,4.6A6.92,6.92,0,0,1,85,596.37Z"/><path d="M98.11,598.06V583h8.64v2.66h-5.62v3.4h5.46v2.64h-5.46v3.68h5.62v2.66Z"/><path d="M118.07,598.06l-5.17-9.18v9.18h-3V583H113l5,8.84V583h3v15Z"/><path d="M127,598.06V585.68h-3.36V583h9.74v2.66h-3.36v12.38Z"/><path d="M136.15,598.06V583h8.63v2.66h-5.61v3.4h5.45v2.64h-5.45v3.68h5.61v2.66Z"/><path d="M147.92,598.06V583h4.84c4.22,0,6.61,3.16,6.61,7.53s-2.39,7.51-6.58,7.51Zm8.34-7.51c0-3-1.2-4.87-3.47-4.87h-1.85v9.72h1.82C155,595.4,156.26,593.44,156.26,590.55Z"/><path d="M167.94,598.06V583h6.24a3.66,3.66,0,0,1,4,3.83,3.33,3.33,0,0,1-2.43,3.45,3.57,3.57,0,0,1,2.68,3.68,3.74,3.74,0,0,1-4,4.08Zm7.15-10.69a1.53,1.53,0,0,0-1.63-1.69H171v3.4h2.5A1.52,1.52,0,0,0,175.09,587.37Zm.24,6.2a1.69,1.69,0,0,0-1.76-1.85H171v3.68h2.61A1.63,1.63,0,0,0,175.33,593.57Z"/><path d="M184.15,598.06v-6.2L179.46,583h3.34l2.86,6,2.84-6h3.34l-4.67,8.84v6.2Z"/><path class="cls-2" d="M510.31,102.51H465.55V50.62A50.68,50.68,0,0,0,414.93,0H135.16A50.66,50.66,0,0,0,84.55,50.61v51.9H39.78A39.83,39.83,0,0,0,0,142.3V371.08a45.61,45.61,0,0,0,13.29,31.63A29.63,29.63,0,0,0,16,405.13c10.12,8,23.07,9.23,35.43,10.8l18.2,2.31c1.07.18,2.16.31,3.24.4l32.91,4a190.49,190.49,0,0,0,338.4.17l6.1-.77,54.82-6.95c10.64-1.35,20.39-3.36,28.92-10.4a44.15,44.15,0,0,0,16.07-33.63V142.3A39.83,39.83,0,0,0,510.31,102.51Z"/><path d="M534.94,347.44V142.3a24.67,24.67,0,0,0-24.63-24.65H458a7.56,7.56,0,0,1-7.57-7.56V50.62a35.52,35.52,0,0,0-35.47-35.48H135.16A35.51,35.51,0,0,0,99.69,50.61v59.48a7.56,7.56,0,0,1-7.56,7.56H39.78A24.68,24.68,0,0,0,15.14,142.3V371.08c0,8.09,3.54,15.25,9.11,20.94a16.76,16.76,0,0,0,1.92,1.76,18.79,18.79,0,0,0,2.5,1.53,35,35,0,0,0,12.41,4l8.3,1.06,20,2.54,2.31.29.32.05c.74.12,1.48.22,2.22.28a1.63,1.63,0,0,1,.31,0l37.11,4.52a7.54,7.54,0,0,1,5.88,4.19,175.35,175.35,0,0,0,314.91.18,7.56,7.56,0,0,1,5.84-4.17l44.54-5.65c14.9-1.89,35.42-1,45.74-13.62C537.52,378.12,534.94,360.88,534.94,347.44Z"/><polygon class="cls-3" points="348.81 80.94 354.41 84.41 368.43 93.08 373.04 95.93 399.9 61.77 407.98 51.49 396.72 57.09 348.81 80.94"/><polygon class="cls-3" points="265.81 40.85 265.81 40.81 149.82 40.81 149.9 40.85 265.81 40.85"/><polygon class="cls-3" points="306.85 280.98 300.97 311.43 312.74 311.43 306.85 280.98"/><path class="cls-3" d="M244.82,324.33h5.43c2,0,2.95-.94,2.95-2.83V278.94c0-1.89-1-2.83-2.95-2.83h-5.43c-2,0-3.06.94-3.06,2.83V321.5C241.76,323.39,242.78,324.33,244.82,324.33Z"/><polygon class="cls-3" points="400.62 40.85 400.69 40.81 284.29 40.81 284.29 40.85 400.62 40.85"/><polygon class="cls-3" points="143.32 52.08 151.13 62.02 177.5 95.57 182.12 92.72 195.8 84.25 201.22 80.9 154.58 57.69 143.32 52.08"/><polygon class="cls-3" points="407.98 51.49 396.72 57.09 348.81 80.94 354.41 84.41 368.43 93.08 373.04 95.93 399.9 61.77 407.98 51.49"/><polygon class="cls-3" points="143.32 52.08 151.13 62.02 177.5 95.57 182.12 92.72 195.8 84.25 201.22 80.9 154.58 57.69 143.32 52.08"/><path class="cls-4" d="M378.41,101.35l37.31-47.46,2.67-3.4a13.51,13.51,0,0,0-4.71-1.84,14.24,14.24,0,0,0-2.46-.23H397.16L341.23,76.26,336,73l-39.76-24.6H281.84L328,77l5.24,3.25-49,24.37-3.16,1.57-2.29,1.14V48.42h-7.57v58.89l-2.09-1-3.37-1.67-49-24.42,5.42-3.35,45.93-28.41H253.73L214.21,72.86l-5.42,3.36-55.85-27.8H138.88a14.13,14.13,0,0,0-2.45.23,13.6,13.6,0,0,0-4.22,1.54l39.73,50.54-3.05,4.85L154.7,128.13h8.94l10.22-16.23,3-4.85,16.58,21.08h9.62l-20.89-26.57,4.61-2.85,17-10.49,5.42-3.35,56.62,28.18.75.37-.75.38L237,128.13h17l11.81-5.88,3.16-1.57,2.3-1.14v8.59h7.57v-8.59l2.5,1.24,3,1.47,11.82,5.88h17l-28.8-14.33-.74-.38.74-.37,56.54-28.14,5.61,3.47,17.28,10.69,4.61,2.85-20.6,26.21h9.63l16.08-20.46,3.05,4.84,9.83,15.62h8.94l-13.8-21.94ZM195.8,84.25l-13.68,8.47-4.62,2.85L143.32,52.08l57.9,28.82ZM373,95.93l-4.61-2.85-14-8.67-5.6-3.47L408,51.49Z"/><polygon class="cls-4" points="125.35 106.73 142.17 128.13 151.8 128.13 125.35 94.48 125.35 106.73"/><polygon class="cls-4" points="399.03 128.13 408.66 128.13 424.76 107.65 424.76 95.41 399.03 128.13"/><path class="cls-4" d="M412.33,40.87h0l.52,0Z"/><path class="cls-4" d="M268.88,371.84c-22.92.11-45.75.87-68.42,2.5q-5.58.41-11.14.89a94.56,94.56,0,0,0,171.45,0c-28.35-2.43-57-3.4-85.72-3.4Z"/><path class="cls-3" d="M244.82,324.33h5.43c2,0,2.95-.94,2.95-2.83V278.94c0-1.89-1-2.83-2.95-2.83h-5.43c-2,0-3.06.94-3.06,2.83V321.5C241.76,323.39,242.78,324.33,244.82,324.33Z"/><path class="cls-3" d="M265.8,303.59c-3,0-6,0-9,.06Z"/><polygon class="cls-3" points="306.85 280.98 300.97 311.43 312.74 311.43 306.85 280.98"/><path class="cls-3" d="M506.58,143.33H43.5A2.71,2.71,0,0,0,40.79,146V371.1a2.64,2.64,0,0,0,1,2,2.68,2.68,0,0,0,2.2.62A1496,1496,0,0,1,275,356.15a1496.08,1496.08,0,0,1,231.11,17.62,2.72,2.72,0,0,0,3.15-2.67V146A2.71,2.71,0,0,0,506.58,143.33ZM227.2,171h16.07v72.38l-16.07.21ZM114.11,261.32q0,12.57-14.38,12.57l-15.17.55q-14.27,0-14.26-12.56V171H86.49l0,88.46c0,1.88,1,2.82,3,2.82l5.47-.31c2,0,3.06-.94,3.06-2.83V171h16.19Zm52.52-16.67-36.79.89V171h16.08v62l20.71-.28Zm44.68,42.89H195.13v-9.39c0-1.89-1-2.83-3.06-2.83h-4.65c-2,0-3,.94-3,2.83V324a2.88,2.88,0,0,0,.68,2.2,3.53,3.53,0,0,0,2.37.62l4.65-.24a3.52,3.52,0,0,0,2.38-.62,2.91,2.91,0,0,0,.68-2.2V308.26l-5.64.09V298.28l21.82-.51v27.49q0,12.47-14.26,12.46l-14.61.64q-14.25,0-14.26-12.45V276.68q0-12.46,14.26-12.46h14.61q14.26,0,14.26,12.46Zm4.23-104.63H202.29V244H186.1V182.91H173V171h42.56Zm53.84,140.75q0,12.55-14.26,12.56H240q-14.4,0-14.39-12.56v-47q0-12.46,14.39-12.46h15.16q14.26,0,14.26,12.46Zm48.35,13.19-2.61-13.64H298.71l-2.53,13.2-15.93-.19,16.3-72h20.61l17,73.15Zm64.18,2.87-36.79-2V264.22h16.07v61.63l20.72,1.45Zm-12.65-95.39-2.66-13.92-16.49-.4-2.67,14-15.9-.42L348,171h20.6l17.16,73.67Zm59.93-61.42H415.94v62.65l-16.18-.45v-62.2H386.63V171h42.56Zm50.6,91.53-39.28-1.57V171h38.37v11.88H456.69v32.71l19,.38v11.88l-19-.38V261l23.1,1.3Z"/><polygon class="cls-3" points="358.26 187.78 352.38 218.24 364.15 218.24 358.26 187.78"/><path class="cls-2" d="M125.35,62v-7.6a13.75,13.75,0,0,1,.48-3.54,11.82,11.82,0,0,1,.39-1.19,13.36,13.36,0,0,1,2.36-4c.17-.2.35-.39.53-.58a13.41,13.41,0,0,1,5.81-3.6,29.74,29.74,0,0,1,4-.6H411.22c.38,0,1.45.09,1.62.11a12.87,12.87,0,0,1,2.91.69A13.55,13.55,0,0,1,421,45c.31.33.61.67.89,1A13.57,13.57,0,0,1,424,49.79a12.86,12.86,0,0,1,.5,1.71,13.38,13.38,0,0,1,.31,2.85v73.78h7.57V54.35a21.06,21.06,0,0,0-1.56-8c-.26-.63-.54-1.24-.86-1.84a21.16,21.16,0,0,0-14.74-10.94h0a21.12,21.12,0,0,0-3.93-.37H138.88c-1.13,0-3.52.3-3.63.32A21.18,21.18,0,0,0,120.49,44a22.81,22.81,0,0,0-1.09,2.22,21.08,21.08,0,0,0-1.62,8.12v73.78h7.57Z"/><path class="cls-2" d="M349.21,465.31a150.15,150.15,0,0,1-120.6,12.29,3.79,3.79,0,0,0-2.35,7.2A157.73,157.73,0,0,0,353,471.88a3.78,3.78,0,0,0-3.75-6.57Z"/><path class="cls-2" d="M171.66,403.83a3.78,3.78,0,0,0-.89,5.28,129,129,0,0,0,14.94,17.49,3.78,3.78,0,1,0,5.29-5.41,121.77,121.77,0,0,1-14.06-16.46A3.78,3.78,0,0,0,171.66,403.83Z"/><path class="cls-2" d="M360,420.24a120.07,120.07,0,0,1-152.89,14.22,3.78,3.78,0,1,0-4.28,6.24A127.64,127.64,0,0,0,365.4,425.59a3.79,3.79,0,1,0-5.36-5.35Z"/><path class="cls-2" d="M197.05,264.22H182.44q-14.26,0-14.26,12.45v49.24q0,12.45,14.26,12.45l14.61-.64q14.26,0,14.26-12.45v-27.5l-21.82.51v10.07l5.63-.09V323.8a2.87,2.87,0,0,1-.68,2.2,3.47,3.47,0,0,1-2.37.63l-4.65.23a3.47,3.47,0,0,1-2.37-.62,2.88,2.88,0,0,1-.68-2.21V278.15c0-1.89,1-2.83,3-2.83h4.65c2,0,3.05.94,3.05,2.83v9.39h16.19V276.67Q211.31,264.22,197.05,264.22Z"/><path class="cls-2" d="M255.12,264.22H240q-14.38,0-14.38,12.45v47q0,12.57,14.38,12.57h15.17q14.26,0,14.26-12.57v-47Q269.38,264.22,255.12,264.22Zm-13.36,14.72c0-1.89,1-2.83,3.06-2.83h5.43c2,0,2.95.94,2.95,2.83V321.5c0,1.89-1,2.83-2.95,2.83h-5.43c-2,0-3.06-.94-3.06-2.83Z"/><path class="cls-2" d="M296.55,264.22l-16.3,72,15.92.19,2.53-13.21h16.42l2.61,13.65,16.45.52-17-73.15ZM306.85,281l5.89,30.45H301Z"/><path class="cls-2" d="M361.19,264.22H345.11v73.52l36.8,2V327.3l-20.72-1.44Z"/><path class="cls-2" d="M97.92,171v88.14c0,1.89-1,2.83-3.06,2.83l-5.47.31c-2,0-3-.94-3-2.83l0-88.45H70.3v90.84q0,12.57,14.26,12.57l15.17-.56q14.37,0,14.38-12.56V171Z"/><path class="cls-2" d="M145.92,201.21V171H129.84v74.52l36.79-.9V232.76l-20.71.28Z"/><path class="cls-2" d="M173,182.92H186.1V244h16.19V182.92h13.25V171H173Z"/><path class="cls-2" d="M243.27,171H227.2v72.6l16.07-.22Z"/><path class="cls-2" d="M300.89,171,289,211.78,277.12,171H259.46v72.21h14.26V194.81L283,227.4l11.95.19,9.33-32.9v48.7l14.27.15V171Z"/><path class="cls-2" d="M348,171l-16.42,72.52,15.9.41,2.68-14,16.49.4,2.66,13.92,16.44.37L368.57,171Zm10.31,16.75,5.88,30.46H352.38Z"/><path class="cls-2" d="M386.62,182.92h13.14v62.19l16.19.45V182.92h13.24V171H386.62Z"/><path class="cls-2" d="M456.7,227.5l19,.39V216l-19-.39V182.92h22.18V171H440.51V272.87l39.28,1.57V262.3L456.7,261Z"/><path class="cls-2" d="M506.58,135.76H43.5A10.29,10.29,0,0,0,33.22,146V371.1a10.29,10.29,0,0,0,10.29,10.28,9.59,9.59,0,0,0,1.6-.13Q83,375.31,122,371.37a157.26,157.26,0,0,0,81.31,103.84,3.67,3.67,0,0,0,1.72.42,3.78,3.78,0,0,0,1.74-7.14,150.38,150.38,0,0,1-58.14-53.08,148.39,148.39,0,0,1-19-44.8c7.33-.71,14.7-1.34,22.08-1.94a127.28,127.28,0,0,0,8.05,21.66,3.79,3.79,0,0,0,6.83-3.27,120.1,120.1,0,0,1-7.2-19c38.14-2.88,76.8-4.34,115.72-4.34s77.57,1.46,115.69,4.33a119.74,119.74,0,0,1-13.23,30.12,3.78,3.78,0,1,0,6.44,4,127,127,0,0,0,14.46-33.47c7.39.6,14.76,1.23,22.11,1.94a149.65,149.65,0,0,1-48.22,78.45,3.78,3.78,0,1,0,4.92,5.75,157.25,157.25,0,0,0,50.9-83.44Q467,375.32,505,381.25a10.27,10.27,0,0,0,11.89-10.15V146A10.28,10.28,0,0,0,506.58,135.76ZM509.3,371.1a2.72,2.72,0,0,1-3.15,2.67A1496.08,1496.08,0,0,0,275,356.15a1496,1496,0,0,0-231.1,17.62,2.68,2.68,0,0,1-2.2-.62,2.64,2.64,0,0,1-1-2V146a2.71,2.71,0,0,1,2.71-2.71H506.58A2.71,2.71,0,0,1,509.3,146Z"/><path class="cls-5" d="M329.53,400.85a1.33,1.33,0,0,0-1.71-.72l-.26.11-.78.29-.09,0-.69.25c-.46.16-.91.31-1.38.45l-.61.19-.62.17-.12,0-.88.23-.27.07c-.26.07-.5.13-.76.18l-.24.06-.79.17-.26.05-.75.14-.33.06-.87.14c-.35.06-.69.11-1,.15H317l-1,.11H316c-.33,0-.67.07-1,.09s-.7.06-1,.08h0c-.32,0-.65,0-1,0h-.16l-1,0h-1.11l-1,0c-.35,0-.71,0-1.06-.06s-.71,0-1.05-.08h0l-1.05-.1-.94-.12-.19,0-1-.15-1.06-.18-.86-.17-1.32-.29-.82-.21-.21-.05-.62-.17-.56-.16-.93-.29c-.25-.07-.51-.15-.75-.24l-.24-.08-.82-.29-.19-.07-.65-.25c-.45-.17-.89-.35-1.33-.54l-.55-.24-.63-.28-.85-.41-.66-.33q-.37-.18-.75-.39l-.63-.34c-.44-.24-.88-.5-1.32-.77-.19-.11-.39-.22-.57-.34s-.63-.39-.94-.6-.57-.38-.85-.57l-.75-.53c-1-.7-1.93-1.45-2.86-2.24a44.29,44.29,0,0,1-13.7-20.85c-22.92.11-45.75.87-68.42,2.5a88.9,88.9,0,0,0,128.63,28.1,1.29,1.29,0,0,0,.45-1.57Z"/><polygon class="cls-5" points="335.99 73.02 328.02 76.98 333.26 80.23 341.23 76.26 335.99 73.02"/><polygon class="cls-5" points="340.83 84.91 346.44 88.38 354.41 84.41 348.81 80.94 340.83 84.91"/><polygon class="cls-5" points="378.41 101.35 373.44 107.67 376.49 112.51 381.46 106.19 378.41 101.35"/><polygon class="cls-5" points="363.72 99.07 368.33 101.92 373.04 95.93 368.43 93.08 363.72 99.07"/><polygon class="cls-5" points="177.5 95.57 182.21 101.56 186.82 98.71 182.12 92.72 177.5 95.57"/><polygon class="cls-5" points="168.89 105.58 173.86 111.9 176.91 107.05 171.94 100.73 168.89 105.58"/><polygon class="cls-5" points="209.19 84.87 201.22 80.9 195.8 84.25 203.77 88.22 209.19 84.87"/><polygon class="cls-5" points="222.19 76.83 214.21 72.86 208.79 76.22 216.77 80.19 222.19 76.83"/><polygon class="cls-5" points="284.29 122.25 284.29 119.31 284.29 113.8 283.55 113.42 284.29 113.05 284.29 107.74 284.29 104.6 281.13 106.17 278.84 107.31 278.84 111.08 278.84 115.77 278.84 119.54 281.34 120.78 284.29 122.25"/><polygon class="cls-5" points="271.27 119.54 271.27 115.77 271.27 111.08 271.27 107.31 269.18 106.27 265.81 104.6 265.81 107.95 265.81 113.05 266.56 113.42 265.81 113.8 265.81 119.11 265.81 122.25 268.97 120.68 271.27 119.54"/><path class="cls-6" d="M389.87,339.7a2,2,0,0,1-1.06-.3l-.14.5a2.36,2.36,0,0,0,1.16.29c1.08,0,1.6-.61,1.6-1.31s-.39-1.05-1.17-1.35c-.63-.24-.9-.45-.9-.88s.23-.68.86-.68a1.79,1.79,0,0,1,.86.21l.17-.48a2.16,2.16,0,0,0-1-.22,1.32,1.32,0,0,0-1.48,1.24c0,.64.46,1,1.21,1.29s.86.49.86.91S390.47,339.7,389.87,339.7Z"/><path class="cls-6" d="M392.89,336.14h0c.12.55.31,1.14.52,1.78l.74,2.18h.45l.81-2.22c.23-.63.42-1.2.57-1.74h0c0,.57,0,1.34.07,2l.12,2h.57l-.28-4.57h-.75l-.82,2.21c-.2.58-.36,1.08-.48,1.54h0c-.11-.47-.27-1-.46-1.54l-.78-2.21h-.75l-.32,4.57h.56l.12-2C392.84,337.48,392.88,336.71,392.89,336.14Z"/><path class="cls-6" d="M180.79,324l0-17.86q-4.51.25-9,.54v19.2c0,7.76,5.09,8.86,10.61,8.87l14.52-.64h.16c5.54,0,10.68-1.08,10.68-8.87V304.85c-3,.13-6,.25-9,.39v18.55a6.28,6.28,0,0,1-1.84,4.85,6.74,6.74,0,0,1-4.71,1.57l-4.55.23h-.19a6.8,6.8,0,0,1-4.79-1.56A6.29,6.29,0,0,1,180.79,324Z"/><path class="cls-6" d="M255.12,332.64c9.41,0,10.68-4.54,10.68-9V303.59c-3,0-6,0-9,.06V321.5c0,3.9-2.56,6.42-6.53,6.42h-5.43c-4,0-6.64-2.52-6.64-6.42V303.93l-9,.22v19.5c0,6.3,3.22,9,10.79,9Z"/><path class="cls-6" d="M89.51,265.89h-.12c-4,0-6.53-2.51-6.53-6.41l.1-37.41q-4.59.63-9.08,1.29v38.51c0,4.43,1.26,9,10.6,9h0l15.23-.56c7.57,0,10.79-2.68,10.79-9V218.66q-4.55.5-9,1v39.47c0,3.84-2.55,6.35-6.54,6.41Z"/><path class="cls-6" d="M142.33,215.55q-4.49.38-8.91.78v25.55l29.63-.73v-4.76l-20.72.28Z"/><path class="cls-6" d="M453.11,223.84l19,.39v-.84q-13.56-2-28-3.72v49.76l32.12,1.28v-5l-23.1-1.31Z"/><path class="cls-7" d="M275.05,371.82l-6.17,0c-22.92.11-45.75.87-68.42,2.5q-5.58.41-11.14.89a94,94,0,0,0,6.41,11.54c26.27-2,52.74-2.81,79.32-2.81s53.09.79,79.36,2.78a96.09,96.09,0,0,0,6.36-11.52C332.42,372.79,303.81,371.82,275.05,371.82Z"/><path class="cls-6" d="M289,218l4.05-7,.18-.6,2.94,0L292.27,224l-6.52-.11-3.88-13.65h3l.2.7,4,7"/><path class="cls-6" d="M357.61,305.76q-4.44-.24-8.91-.45v29l29.62,1.59v-5.3l-20.71-1.44Z"/><path class="cls-6" d="M320.71,333.36l8.92.28-6.82-29.32L315,304.1,317.08,315H296.63l2.17-11.24-7.51-.1-6.57,29,8.5.1,2.52-13.17h22.34Z"/><path class="cls-6" d="M366.43,212.81l1.74,9H347.71l1.91-9.88q-3.74-.18-7.49-.33l-6.45,28.47,8.49.22,2.67-13.94,24.21.54,2.66,13.91,7.14.21-6.45-27.73C371.75,213.12,369.1,213,366.43,212.81Z"/><path class="cls-6" d="M307.87,239.85l7.1.08V210.75l-7.1-.16Z"/><path class="cls-6" d="M270.14,239.66H263V210.25l7.1,0Z"/><path class="cls-6" d="M231.68,239.09l7.11-.1V210.57l-7.11.16Z"/><path class="cls-6" d="M189.69,240.41h9V211.89q-4.53.2-9,.44Z"/><path class="cls-6" d="M403.34,241.63l9,.25V216.33l-9-.8Z"/></g></g></g></svg>